<svg width="186" height="48" viewBox="0 0 186 48" fill="none" xmlns="http://www.w3.org/2000/svg">
<g clip-path="url(#clip0_1_17)">
<path fill-rule="evenodd" clip-rule="evenodd" d="M27.1899 17.5698C27.1899 15.8062 25.7602 14.3765 23.9966 14.3765C22.233 14.3765 20.8033 15.8062 20.8033 17.5698V20.7631C20.8033 21.752 20.8033 22.2464 20.8688 22.6601C21.2295 24.9375 23.0156 26.7235 25.293 27.0842C25.7066 27.1497 26.2011 27.1497 27.1899 27.1497H30.3832C32.1468 27.1497 33.5766 25.72 33.5766 23.9564C33.5766 22.1928 32.1468 20.7631 30.3832 20.7631H27.6689C27.4044 20.7631 27.1899 20.5487 27.1899 20.2841V17.5698Z" fill="#176B4D"/>
<g style="mix-blend-mode:darken">
<path fill-rule="evenodd" clip-rule="evenodd" d="M20.7631 30.3832C20.7631 32.1468 22.1929 33.5765 23.9564 33.5765C25.72 33.5765 27.1497 32.1468 27.1497 30.3832V27.2892C27.1497 26.3926 27.1497 25.9443 27.0958 25.5685C26.7603 23.2291 24.9224 21.3912 22.583 21.0557C22.2072 21.0018 21.7589 21.0018 20.8624 21.0018H17.5202C15.784 21.0018 14.3765 22.4093 14.3765 24.1455C14.3765 25.8817 15.784 27.2891 17.5202 27.2891H20.2842C20.5487 27.2891 20.7631 27.5036 20.7631 27.7681V30.3832Z" fill="#EA4335"/>
</g>
<path d="M18.332 2.91106C17.9856 1.61837 16.651 0.839807 15.3994 1.3135C11.3985 2.82766 7.85512 5.38012 5.14489 8.72695C2.43467 12.0738 0.674681 16.0705 0.0254498 20.2988C-0.177656 21.6215 0.861372 22.7651 2.19782 22.8351C3.53426 22.9052 4.65908 21.8735 4.89519 20.5562C5.46976 17.3508 6.84546 14.3279 8.91118 11.7769C10.977 9.22589 13.6478 7.25173 16.6637 6.0233C17.9031 5.51846 18.6784 4.20373 18.332 2.91106Z" fill="#EA4335"/>
<path d="M4.87584 11.331C6.75894 11.331 8.2855 9.80447 8.2855 7.92137C8.2855 6.03827 6.75894 4.51172 4.87584 4.51172C2.99274 4.51172 1.46619 6.03827 1.46619 7.92137C1.46619 9.80447 2.99274 11.331 4.87584 11.331Z" fill="#EA4335" stroke="white" stroke-width="1.33191"/>
<path d="M45.0419 18.332C46.3346 17.9856 47.1132 16.651 46.6395 15.3994C45.1253 11.3985 42.5729 7.85512 39.226 5.1449C35.8791 2.43467 31.8825 0.674681 27.6542 0.0254498C26.3314 -0.177656 25.1879 0.861372 25.1179 2.19782C25.0478 3.53426 26.0795 4.65908 27.3968 4.89519C30.6022 5.46976 33.6251 6.84546 36.1761 8.91118C38.7271 10.977 40.7013 13.6478 41.9297 16.6637C42.4345 17.9031 43.7493 18.6784 45.0419 18.332Z" fill="#176B4D"/>
<path d="M36.622 4.87584C36.622 6.75894 38.1485 8.2855 40.0316 8.2855C41.9147 8.2855 43.4413 6.75894 43.4413 4.87584C43.4413 2.99274 41.9147 1.46619 40.0316 1.46619C38.1485 1.46619 36.622 2.99274 36.622 4.87584Z" fill="#176B4D" stroke="white" stroke-width="1.33191"/>
<path d="M29.621 45.0419C29.9674 46.3346 31.3019 47.1132 32.5536 46.6395C36.5545 45.1253 40.0979 42.5729 42.8081 39.226C45.5183 35.8791 47.2783 31.8825 47.9276 27.6542C48.1306 26.3314 47.0916 25.1879 45.7552 25.1179C44.4187 25.0478 43.2939 26.0795 43.0578 27.3968C42.4832 30.6022 41.1075 33.6251 39.0418 36.1761C36.976 38.7271 34.3052 40.7013 31.2892 41.9297C30.0498 42.4345 29.2746 43.7493 29.621 45.0419Z" fill="#EA4335"/>
<path d="M43.0772 36.622C41.1941 36.622 39.6675 38.1486 39.6675 40.0317C39.6675 41.9148 41.1941 43.4413 43.0772 43.4413C44.9603 43.4413 46.4868 41.9148 46.4868 40.0317C46.4868 38.1486 44.9603 36.622 43.0772 36.622Z" fill="#EA4335" stroke="white" stroke-width="1.33191"/>
<path d="M2.91106 29.621C1.61837 29.9674 0.839807 31.302 1.3135 32.5536C2.82766 36.5545 5.38012 40.0979 8.72695 42.8081C12.0738 45.5184 16.0705 47.2783 20.2988 47.9276C21.6215 48.1307 22.7651 47.0916 22.8351 45.7552C22.9052 44.4187 21.8735 43.2939 20.5562 43.0578C17.3508 42.4832 14.3279 41.1075 11.7769 39.0418C9.22589 36.976 7.25173 34.3052 6.0233 31.2892C5.51846 30.0498 4.20373 29.2746 2.91106 29.621Z" fill="#176B4D"/>
<path d="M11.331 43.0771C11.331 41.194 9.80441 39.6674 7.92131 39.6674C6.03821 39.6674 4.51166 41.194 4.51166 43.0771C4.51166 44.9602 6.03821 46.4868 7.92131 46.4868C9.80441 46.4868 11.331 44.9602 11.331 43.0771Z" fill="#176B4D" stroke="white" stroke-width="1.33191"/>
<path d="M59.7379 22.6428H57.5425V16.4493H59.7561C60.3791 16.4493 60.9154 16.5733 61.365 16.8213C61.8146 17.0672 62.1603 17.421 62.4022 17.8828C62.6462 18.3444 62.7682 18.8969 62.7682 19.54C62.7682 20.1851 62.6462 20.7396 62.4022 21.2033C62.1603 21.667 61.8125 22.0228 61.359 22.2708C60.9073 22.5188 60.367 22.6428 59.7379 22.6428ZM58.8519 21.5208H59.6835C60.0706 21.5208 60.3962 21.4523 60.6603 21.3152C60.9265 21.176 61.126 20.9613 61.2591 20.671C61.3942 20.3787 61.4618 20.0017 61.4618 19.54C61.4618 19.0823 61.3942 18.7084 61.2591 18.4181C61.126 18.1277 60.9275 17.914 60.6634 17.7769C60.3993 17.6398 60.0737 17.5713 59.6866 17.5713H58.8519V21.5208ZM63.714 22.6428V17.9976H65.0023V22.6428H63.714ZM64.3612 17.3989C64.1696 17.3989 64.0053 17.3354 63.8682 17.2084C63.7331 17.0794 63.6656 16.9251 63.6656 16.7457C63.6656 16.5682 63.7331 16.416 63.8682 16.289C64.0053 16.16 64.1696 16.0955 64.3612 16.0955C64.5527 16.0955 64.716 16.16 64.8511 16.289C64.9881 16.416 65.0567 16.5682 65.0567 16.7457C65.0567 16.9251 64.9881 17.0794 64.8511 17.2084C64.716 17.3354 64.5527 17.3989 64.3612 17.3989ZM66.0343 22.6428V17.9976H67.2834V18.8081H67.3317C67.4165 18.5198 67.5582 18.3021 67.7581 18.1549C67.9574 18.0057 68.1878 17.9312 68.4473 17.9312C68.5122 17.9312 68.5817 17.9351 68.6565 17.9432C68.7307 17.9513 68.7962 17.9624 68.8525 17.9765V19.1197C68.7923 19.1015 68.7088 19.0854 68.6016 19.0713C68.495 19.0572 68.397 19.0501 68.3083 19.0501C68.1189 19.0501 67.9494 19.0914 67.8005 19.1741C67.6535 19.2547 67.5363 19.3676 67.4496 19.5128C67.3648 19.6579 67.3225 19.8253 67.3225 20.0148V22.6428H66.0343ZM71.4194 22.7335C70.942 22.7335 70.5302 22.6368 70.1859 22.4432C69.843 22.2476 69.5788 21.9714 69.3934 21.6146C69.208 21.2557 69.1154 20.8313 69.1154 20.3414C69.1154 19.8636 69.208 19.4442 69.3934 19.0834C69.5788 18.7225 69.8397 18.4412 70.1767 18.2396C70.5156 18.038 70.9122 17.9372 71.3684 17.9372C71.6749 17.9372 71.9596 17.9866 72.2238 18.0854C72.4899 18.1822 72.7216 18.3283 72.9196 18.5239C73.1189 18.7194 73.2745 18.9654 73.385 19.2618C73.4963 19.5562 73.5519 19.9009 73.5519 20.296V20.6499H69.6291V19.8515H72.339C72.339 19.666 72.2986 19.5017 72.2178 19.3585C72.137 19.2154 72.0251 19.1035 71.8821 19.0229C71.7411 18.9402 71.5769 18.8988 71.3896 18.8988C71.1936 18.8988 71.0201 18.9442 70.8692 19.035C70.7202 19.1237 70.603 19.2437 70.5183 19.3948C70.4335 19.544 70.3905 19.7103 70.3885 19.8938V20.6529C70.3885 20.8827 70.4309 21.0813 70.5156 21.2487C70.6017 21.416 70.7242 21.545 70.8811 21.6357C71.0387 21.7265 71.2247 21.7718 71.4405 21.7718C71.5836 21.7718 71.7146 21.7516 71.8338 21.7113C71.953 21.671 72.0549 21.6106 72.139 21.5299C72.2238 21.4493 72.2887 21.3504 72.333 21.2335L73.5241 21.3122C73.4638 21.5984 73.34 21.8484 73.1527 22.0622C72.9666 22.2738 72.7269 22.4391 72.433 22.5581C72.1404 22.675 71.8027 22.7335 71.4194 22.7335ZM76.4908 22.7335C76.0154 22.7335 75.6063 22.6327 75.2633 22.4311C74.9224 22.2275 74.6602 21.9452 74.4768 21.5843C74.2954 21.2234 74.2047 20.8081 74.2047 20.3384C74.2047 19.8626 74.2967 19.4453 74.4801 19.0863C74.6655 18.7255 74.9283 18.4442 75.2693 18.2426C75.6103 18.039 76.0154 17.9372 76.4848 17.9372C76.89 17.9372 77.2449 18.0108 77.5494 18.1579C77.854 18.3051 78.095 18.5118 78.2724 18.7779C78.4499 19.044 78.5472 19.3565 78.5657 19.7154H77.3502C77.3157 19.4835 77.225 19.297 77.0781 19.1559C76.9324 19.0128 76.7424 18.9412 76.506 18.9412C76.3068 18.9412 76.132 18.9956 75.983 19.1045C75.836 19.2113 75.7208 19.3676 75.6381 19.5732C75.5553 19.7789 75.5142 20.0279 75.5142 20.3202C75.5142 20.6166 75.5546 20.8686 75.6354 21.0763C75.7182 21.284 75.834 21.4422 75.983 21.551C76.132 21.6599 76.3068 21.7144 76.506 21.7144C76.6537 21.7144 76.7854 21.6841 76.9026 21.6237C77.0211 21.5631 77.1191 21.4754 77.1959 21.3606C77.274 21.2436 77.3257 21.1035 77.3502 20.9402H78.5657C78.5452 21.295 78.4485 21.6075 78.2751 21.8777C78.1043 22.1458 77.8672 22.3555 77.5647 22.5067C77.2621 22.6579 76.9046 22.7335 76.4908 22.7335ZM81.8615 17.9976V18.9654H79.0636V17.9976H81.8615ZM79.6992 16.8848H80.9876V21.2154C80.9876 21.3343 81.0054 21.4271 81.0419 21.4936C81.0783 21.5581 81.1286 21.6035 81.1928 21.6297C81.2597 21.6559 81.3358 21.669 81.4226 21.669C81.4835 21.669 81.5437 21.664 81.604 21.6539C81.6649 21.6418 81.7112 21.6327 81.743 21.6266L81.9456 22.5853C81.8814 22.6055 81.7907 22.6287 81.6735 22.6549C81.557 22.6831 81.4146 22.7003 81.2471 22.7063C80.9366 22.7184 80.6645 22.6771 80.4308 22.5823C80.1991 22.4875 80.0183 22.3404 79.8892 22.1408C79.7608 21.9412 79.6972 21.6891 79.6992 21.3847V16.8848ZM82.7003 22.6428V17.9976H83.9887V22.6428H82.7003ZM83.3479 17.3989C83.1559 17.3989 82.9917 17.3354 82.8546 17.2084C82.7195 17.0794 82.652 16.9251 82.652 16.7457C82.652 16.5682 82.7195 16.416 82.8546 16.289C82.9917 16.16 83.1559 16.0955 83.3479 16.0955C83.5392 16.0955 83.7027 16.16 83.8378 16.289C83.9748 16.416 84.043 16.5682 84.043 16.7457C84.043 16.9251 83.9748 17.0794 83.8378 17.2084C83.7027 17.3354 83.5392 17.3989 83.3479 17.3989ZM87.1197 22.7335C86.6496 22.7335 86.2437 22.6337 85.9008 22.4341C85.5598 22.2325 85.297 21.9522 85.1116 21.5934C84.9262 21.2325 84.8335 20.8141 84.8335 20.3384C84.8335 19.8585 84.9262 19.4392 85.1116 19.0803C85.297 18.7194 85.5598 18.4392 85.9008 18.2396C86.2437 18.038 86.6496 17.9372 87.1197 17.9372C87.5891 17.9372 87.9943 18.038 88.3352 18.2396C88.6782 18.4392 88.9423 18.7194 89.1277 19.0803C89.3131 19.4392 89.4058 19.8585 89.4058 20.3384C89.4058 20.8141 89.3131 21.2325 89.1277 21.5934C88.9423 21.9522 88.6782 22.2325 88.3352 22.4341C87.9943 22.6337 87.5891 22.7335 87.1197 22.7335ZM87.1256 21.7356C87.3395 21.7356 87.5176 21.675 87.6606 21.5541C87.8042 21.4311 87.9122 21.2638 87.9843 21.0521C88.0591 20.8404 88.0962 20.5994 88.0962 20.3293C88.0962 20.0591 88.0591 19.8182 87.9843 19.6065C87.9122 19.3948 87.8042 19.2275 87.6606 19.1045C87.5176 18.9815 87.3395 18.92 87.1256 18.92C86.9098 18.92 86.7284 18.9815 86.5814 19.1045C86.4357 19.2275 86.3258 19.3948 86.2517 19.6065C86.1789 19.8182 86.1424 20.0591 86.1424 20.3293C86.1424 20.5994 86.1789 20.8404 86.2517 21.0521C86.3258 21.2638 86.4357 21.4311 86.5814 21.5541C86.7284 21.675 86.9098 21.7356 87.1256 21.7356ZM91.5317 19.9573V22.6428H90.2433V17.9976H91.4714V18.8172H91.5257C91.6284 18.547 91.8012 18.3334 92.0428 18.1761C92.2845 18.0168 92.5784 17.9372 92.9227 17.9372C93.2451 17.9372 93.5265 18.0078 93.7668 18.1489C94.0065 18.29 94.1932 18.4916 94.3263 18.7537C94.4594 19.0138 94.5256 19.3243 94.5256 19.6851V22.6428H93.2372V19.915C93.2392 19.6307 93.167 19.409 93.0194 19.2497C92.8724 19.0884 92.6698 19.0078 92.4116 19.0078C92.2381 19.0078 92.0852 19.045 91.9521 19.1197C91.821 19.1942 91.7184 19.3031 91.6436 19.4462C91.5707 19.5874 91.5337 19.7578 91.5317 19.9573ZM101.643 18.4513C101.6 18.3041 101.542 18.1741 101.465 18.0612C101.388 17.9463 101.295 17.8495 101.183 17.7709C101.075 17.6902 100.95 17.6287 100.809 17.5864C100.67 17.5441 100.515 17.5229 100.346 17.5229C100.029 17.5229 99.7506 17.6015 99.5109 17.7588C99.2733 17.916 99.0879 18.1448 98.9548 18.4453C98.8217 18.7437 98.7549 19.1085 98.7549 19.54C98.7549 19.9715 98.8204 20.3384 98.9515 20.6408C99.0826 20.9432 99.268 21.174 99.5083 21.3333C99.748 21.4906 100.031 21.5692 100.358 21.5692C100.654 21.5692 100.907 21.5168 101.117 21.4119C101.328 21.3051 101.49 21.1549 101.6 20.9613C101.714 20.7678 101.77 20.539 101.77 20.2749L102.036 20.3142H100.439V19.3283H103.031V20.1085C103.031 20.6529 102.916 21.1206 102.686 21.5118C102.456 21.9009 102.14 22.2012 101.737 22.413C101.334 22.6226 100.872 22.7275 100.352 22.7275C99.7711 22.7275 99.2613 22.5994 98.8217 22.3434C98.3821 22.0853 98.0392 21.7194 97.7935 21.2456C97.5492 20.7698 97.4274 20.2053 97.4274 19.5521C97.4274 19.0501 97.5002 18.6025 97.6452 18.2094C97.7922 17.8142 97.9981 17.4795 98.2623 17.2053C98.5265 16.9311 98.8336 16.7225 99.1845 16.5794C99.5354 16.4362 99.9155 16.3646 100.325 16.3646C100.676 16.3646 101.002 16.416 101.304 16.5188C101.607 16.6197 101.875 16.7628 102.109 16.9483C102.345 17.1338 102.537 17.3545 102.686 17.6106C102.836 17.8646 102.931 18.1448 102.974 18.4513H101.643ZM106.108 22.7335C105.63 22.7335 105.219 22.6368 104.874 22.4432C104.531 22.2476 104.267 21.9714 104.081 21.6146C103.896 21.2557 103.803 20.8313 103.803 20.3414C103.803 19.8636 103.896 19.4442 104.081 19.0834C104.267 18.7225 104.528 18.4412 104.864 18.2396C105.203 18.038 105.601 17.9372 106.056 17.9372C106.363 17.9372 106.648 17.9866 106.912 18.0854C107.178 18.1822 107.41 18.3283 107.607 18.5239C107.807 18.7194 107.962 18.9654 108.073 19.2618C108.184 19.5562 108.24 19.9009 108.24 20.296V20.6499H104.317V19.8515H107.027C107.027 19.666 106.986 19.5017 106.906 19.3585C106.825 19.2154 106.714 19.1035 106.57 19.0229C106.429 18.9402 106.265 18.8988 106.077 18.8988C105.881 18.8988 105.709 18.9442 105.557 19.035C105.408 19.1237 105.291 19.2437 105.206 19.3948C105.121 19.544 105.078 19.7103 105.076 19.8938V20.6529C105.076 20.8827 105.119 21.0813 105.203 21.2487C105.29 21.416 105.412 21.545 105.569 21.6357C105.726 21.7265 105.913 21.7718 106.128 21.7718C106.272 21.7718 106.403 21.7516 106.522 21.7113C106.641 21.671 106.743 21.6106 106.827 21.5299C106.912 21.4493 106.976 21.3504 107.021 21.2335L108.213 21.3122C108.152 21.5984 108.028 21.8484 107.84 22.0622C107.655 22.2738 107.415 22.4391 107.121 22.5581C106.828 22.675 106.49 22.7335 106.108 22.7335ZM105.563 17.3989L106.204 16.0229H107.396L106.473 17.3989H105.563ZM110.368 19.9573V22.6428H109.08V17.9976H110.308V18.8172H110.362C110.466 18.547 110.638 18.3334 110.879 18.1761C111.122 18.0168 111.415 17.9372 111.76 17.9372C112.082 17.9372 112.364 18.0078 112.603 18.1489C112.843 18.29 113.03 18.4916 113.163 18.7537C113.296 19.0138 113.363 19.3243 113.363 19.6851V22.6428H112.074V19.915C112.076 19.6307 112.004 19.409 111.857 19.2497C111.709 19.0884 111.506 19.0078 111.249 19.0078C111.075 19.0078 110.922 19.045 110.789 19.1197C110.658 19.1942 110.555 19.3031 110.48 19.4462C110.408 19.5874 110.371 19.7578 110.368 19.9573ZM116.495 22.7335C116.017 22.7335 115.606 22.6368 115.261 22.4432C114.918 22.2476 114.654 21.9714 114.468 21.6146C114.283 21.2557 114.19 20.8313 114.19 20.3414C114.19 19.8636 114.283 19.4442 114.468 19.0834C114.654 18.7225 114.915 18.4412 115.252 18.2396C115.591 18.038 115.988 17.9372 116.443 17.9372C116.75 17.9372 117.035 17.9866 117.299 18.0854C117.566 18.1822 117.797 18.3283 117.995 18.5239C118.195 18.7194 118.349 18.9654 118.461 19.2618C118.571 19.5562 118.627 19.9009 118.627 20.296V20.6499H114.704V19.8515H117.414C117.414 19.666 117.374 19.5017 117.293 19.3585C117.213 19.2154 117.101 19.1035 116.957 19.0229C116.816 18.9402 116.652 18.8988 116.465 18.8988C116.269 18.8988 116.096 18.9442 115.944 19.035C115.795 19.1237 115.678 19.2437 115.593 19.3948C115.509 19.544 115.465 19.7103 115.463 19.8938V20.6529C115.463 20.8827 115.506 21.0813 115.591 21.2487C115.677 21.416 115.799 21.545 115.957 21.6357C116.114 21.7265 116.3 21.7718 116.516 21.7718C116.659 21.7718 116.79 21.7516 116.909 21.7113C117.028 21.671 117.13 21.6106 117.215 21.5299C117.299 21.4493 117.364 21.3504 117.408 21.2335L118.6 21.3122C118.539 21.5984 118.415 21.8484 118.228 22.0622C118.042 22.2738 117.802 22.4391 117.508 22.5581C117.215 22.675 116.878 22.7335 116.495 22.7335ZM115.95 17.3989L116.592 16.0229H117.783L116.86 17.3989H115.95ZM119.468 22.6428V17.9976H120.716V18.8081H120.765C120.849 18.5198 120.992 18.3021 121.191 18.1549C121.391 18.0057 121.621 17.9312 121.881 17.9312C121.945 17.9312 122.015 17.9351 122.089 17.9432C122.164 17.9513 122.23 17.9624 122.286 17.9765V19.1197C122.225 19.1015 122.142 19.0854 122.035 19.0713C121.928 19.0572 121.831 19.0501 121.742 19.0501C121.552 19.0501 121.383 19.0914 121.233 19.1741C121.086 19.2547 120.969 19.3676 120.883 19.5128C120.798 19.6579 120.756 19.8253 120.756 20.0148V22.6428H119.468ZM124.144 22.7305C123.847 22.7305 123.583 22.6791 123.351 22.5762C123.12 22.4714 122.936 22.3172 122.801 22.1135C122.667 21.9079 122.601 21.6519 122.601 21.3454C122.601 21.0874 122.649 20.8706 122.744 20.6952C122.838 20.5198 122.967 20.3787 123.13 20.2718C123.294 20.165 123.479 20.0844 123.687 20.0299C123.897 19.9754 124.116 19.9372 124.346 19.915C124.617 19.8868 124.834 19.8606 124.999 19.8363C125.165 19.8101 125.285 19.7719 125.359 19.7215C125.434 19.671 125.471 19.5965 125.471 19.4976V19.4795C125.471 19.2879 125.41 19.1398 125.29 19.035C125.171 18.9301 125.001 18.8777 124.781 18.8777C124.55 18.8777 124.366 18.9291 124.228 19.0319C124.091 19.1328 124 19.2597 123.956 19.4129L122.765 19.3162C122.825 19.034 122.944 18.79 123.122 18.5844C123.299 18.3767 123.527 18.2174 123.808 18.1066C124.09 17.9937 124.417 17.9372 124.787 17.9372C125.046 17.9372 125.293 17.9675 125.529 18.0279C125.767 18.0884 125.977 18.1822 126.161 18.3091C126.346 18.4362 126.492 18.5995 126.6 18.7991C126.706 18.9966 126.76 19.2335 126.76 19.5097V22.6428H125.538V21.9987H125.501C125.427 22.1438 125.327 22.2718 125.202 22.3827C125.077 22.4916 124.927 22.5772 124.752 22.6397C124.576 22.7003 124.374 22.7305 124.144 22.7305ZM124.513 21.8413C124.702 21.8413 124.87 21.8041 125.015 21.7295C125.16 21.6529 125.273 21.55 125.356 21.421C125.439 21.292 125.48 21.1458 125.48 20.9825V20.4896C125.44 20.5158 125.385 20.54 125.314 20.5622C125.246 20.5823 125.167 20.6015 125.081 20.6196C124.995 20.6357 124.908 20.6509 124.821 20.665C124.734 20.6771 124.656 20.6882 124.585 20.6982C124.434 20.7204 124.302 20.7557 124.189 20.8041C124.076 20.8525 123.988 20.918 123.926 21.0007C123.863 21.0813 123.832 21.1821 123.832 21.3031C123.832 21.4785 123.896 21.6125 124.023 21.7053C124.152 21.796 124.315 21.8413 124.513 21.8413ZM129.047 16.4493V22.6428H127.759V16.4493H129.047ZM132.196 22.7335C131.719 22.7335 131.307 22.6368 130.963 22.4432C130.62 22.2476 130.355 21.9714 130.17 21.6146C129.985 21.2557 129.892 20.8313 129.892 20.3414C129.892 19.8636 129.985 19.4442 130.17 19.0834C130.355 18.7225 130.616 18.4412 130.953 18.2396C131.292 18.038 131.689 17.9372 132.145 17.9372C132.452 17.9372 132.736 17.9866 133 18.0854C133.267 18.1822 133.498 18.3283 133.696 18.5239C133.896 18.7194 134.051 18.9654 134.162 19.2618C134.273 19.5562 134.328 19.9009 134.328 20.296V20.6499H130.406V19.8515H133.116C133.116 19.666 133.075 19.5017 132.994 19.3585C132.914 19.2154 132.802 19.1035 132.659 19.0229C132.518 18.9402 132.354 18.8988 132.166 18.8988C131.97 18.8988 131.797 18.9442 131.646 19.035C131.497 19.1237 131.38 19.2437 131.295 19.3948C131.21 19.544 131.167 19.7103 131.165 19.8938V20.6529C131.165 20.8827 131.208 21.0813 131.292 21.2487C131.379 21.416 131.501 21.545 131.658 21.6357C131.815 21.7265 132.001 21.7718 132.217 21.7718C132.36 21.7718 132.491 21.7516 132.61 21.7113C132.73 21.671 132.832 21.6106 132.916 21.5299C133 21.4493 133.065 21.3504 133.11 21.2335L134.301 21.3122C134.24 21.5984 134.117 21.8484 133.929 22.0622C133.743 22.2738 133.504 22.4391 133.21 22.5581C132.917 22.675 132.579 22.7335 132.196 22.7335ZM59.2299 33.0467C58.8771 33.0467 58.5575 32.956 58.2713 32.7745C57.987 32.591 57.7612 32.3219 57.5938 31.967C57.4285 31.6102 57.3459 31.1727 57.3459 30.6545C57.3459 30.1223 57.4316 29.6798 57.6029 29.327C57.7743 28.9721 58.0021 28.707 58.2864 28.5316C58.5726 28.3542 58.8862 28.2655 59.2269 28.2655C59.487 28.2655 59.7037 28.3098 59.8771 28.3985C60.0525 28.4852 60.1936 28.5941 60.3004 28.7251C60.4093 28.8542 60.492 28.9812 60.5484 29.1062H60.5878V26.7776H61.873V32.9711H60.6029V32.2271H60.5484C60.4879 32.3561 60.4023 32.4842 60.2914 32.6112C60.1825 32.7362 60.0404 32.84 59.865 32.9227C59.6916 33.0054 59.4799 33.0467 59.2299 33.0467ZM59.6382 32.0215C59.8459 32.0215 60.0212 31.965 60.1644 31.8521C60.3095 31.7372 60.4204 31.5769 60.497 31.3713C60.5757 31.1657 60.615 30.9247 60.615 30.6485C60.615 30.3723 60.5767 30.1324 60.5 29.9287C60.4234 29.7251 60.3126 29.5679 60.1674 29.457C60.0222 29.3461 59.8459 29.2907 59.6382 29.2907C59.4265 29.2907 59.2481 29.3481 59.1029 29.463C58.9578 29.578 58.8479 29.7372 58.7732 29.9408C58.6987 30.1445 58.6614 30.3804 58.6614 30.6485C58.6614 30.9186 58.6987 31.1576 58.7732 31.3652C58.8498 31.5708 58.9597 31.7321 59.1029 31.8491C59.2481 31.964 59.4265 32.0215 59.6382 32.0215ZM65.0491 33.0618C64.5713 33.0618 64.16 32.965 63.8153 32.7714C63.4725 32.5759 63.2084 32.2997 63.023 31.9429C62.8375 31.584 62.7447 31.1596 62.7447 30.6696C62.7447 30.1918 62.8375 29.7725 63.023 29.4116C63.2084 29.0508 63.4696 28.7695 63.8062 28.5679C64.1449 28.3662 64.5421 28.2655 64.9977 28.2655C65.3042 28.2655 65.5895 28.3149 65.8536 28.4136C66.1197 28.5104 66.3519 28.6566 66.5492 28.8521C66.7485 29.0477 66.904 29.2937 67.0146 29.5901C67.1258 29.8844 67.1814 30.2292 67.1814 30.6243V30.9782H63.2588V30.1798H65.9685C65.9685 29.9943 65.9282 29.8299 65.8475 29.6868C65.7669 29.5437 65.655 29.4318 65.5118 29.3511C65.3708 29.2685 65.2064 29.2271 65.0189 29.2271C64.8234 29.2271 64.65 29.2725 64.4987 29.3632C64.3496 29.452 64.2327 29.5719 64.148 29.7231C64.0633 29.8723 64.0199 30.0386 64.0179 30.2221V30.9811C64.0179 31.211 64.0603 31.4096 64.1449 31.5769C64.2316 31.7442 64.3536 31.8733 64.5109 31.964C64.6681 32.0548 64.8546 32.1001 65.0703 32.1001C65.2135 32.1001 65.3445 32.0799 65.4634 32.0396C65.5824 31.9993 65.6842 31.9388 65.7689 31.8582C65.8536 31.7775 65.9181 31.6787 65.9624 31.5618L67.1543 31.6404C67.0934 31.9267 66.9696 32.1767 66.7822 32.3904C66.5968 32.6021 66.3565 32.7674 66.0622 32.8864C65.7699 33.0033 65.4322 33.0618 65.0491 33.0618ZM70.0171 32.9711V26.7776H74.1179V27.8572H71.3267V29.333H73.8458V30.4126H71.3267V32.9711H70.0171ZM76.7325 33.0618C76.2624 33.0618 75.8565 32.962 75.5136 32.7624C75.1726 32.5608 74.9098 32.2805 74.7244 31.9217C74.539 31.5608 74.4457 31.1424 74.4457 30.6667C74.4457 30.1868 74.539 29.7674 74.7244 29.4086C74.9098 29.0477 75.1726 28.7675 75.5136 28.5679C75.8565 28.3662 76.2624 28.2655 76.7325 28.2655C77.2019 28.2655 77.607 28.3662 77.948 28.5679C78.291 28.7675 78.5551 29.0477 78.7405 29.4086C78.9259 29.7674 79.0186 30.1868 79.0186 30.6667C79.0186 31.1424 78.9259 31.5608 78.7405 31.9217C78.5551 32.2805 78.291 32.5608 77.948 32.7624C77.607 32.962 77.2019 33.0618 76.7325 33.0618ZM76.7384 32.0638C76.9523 32.0638 77.1304 32.0033 77.2734 31.8824C77.417 31.7594 77.5243 31.592 77.5971 31.3804C77.6719 31.1686 77.709 30.9277 77.709 30.6576C77.709 30.3874 77.6719 30.1465 77.5971 29.9348C77.5243 29.7231 77.417 29.5558 77.2734 29.4328C77.1304 29.3098 76.9523 29.2483 76.7384 29.2483C76.5226 29.2483 76.3412 29.3098 76.1942 29.4328C76.0485 29.5558 75.9386 29.7231 75.8645 29.9348C75.7917 30.1465 75.7552 30.3874 75.7552 30.6576C75.7552 30.9277 75.7917 31.1686 75.8645 31.3804C75.9386 31.592 76.0485 31.7594 76.1942 31.8824C76.3412 32.0033 76.5226 32.0638 76.7384 32.0638ZM82.8348 30.9933V28.3259H84.1231V32.9711H82.8864V32.1273H82.8381C82.7334 32.3995 82.5587 32.6182 82.315 32.7836C82.0727 32.9489 81.7774 33.0316 81.4285 33.0316C81.118 33.0316 80.8452 32.961 80.6095 32.8198C80.3732 32.6788 80.1891 32.4781 80.056 32.218C79.925 31.958 79.8581 31.6465 79.8561 31.2836V28.3259H81.1445V31.0537C81.1465 31.3279 81.22 31.5446 81.365 31.7039C81.5106 31.8632 81.7053 31.9429 81.9489 31.9429C82.1045 31.9429 82.2495 31.9076 82.3845 31.837C82.5196 31.7644 82.6282 31.6576 82.7109 31.5164C82.7957 31.3753 82.8367 31.2009 82.8348 30.9933ZM85.154 32.9711V28.3259H86.4026V29.1364H86.451C86.5357 28.8481 86.6781 28.6304 86.8773 28.4832C87.0773 28.334 87.307 28.2594 87.5672 28.2594C87.6314 28.2594 87.701 28.2634 87.7758 28.2715C87.8506 28.2796 87.9161 28.2907 87.9724 28.3048V29.4479C87.9122 29.4298 87.8281 29.4136 87.7215 29.3995C87.6142 29.3854 87.5169 29.3783 87.4282 29.3783C87.2382 29.3783 87.0693 29.4197 86.9197 29.5023C86.7727 29.583 86.6556 29.6959 86.5688 29.8411C86.4847 29.9862 86.4424 30.1536 86.4424 30.343V32.9711H85.154ZM89.9268 30.2856V32.9711H88.6385V28.3259H89.8659V29.1455H89.9209C90.0235 28.8753 90.1956 28.6617 90.438 28.5043C90.6796 28.3451 90.9729 28.2655 91.3178 28.2655C91.6403 28.2655 91.9216 28.336 92.1613 28.4771C92.4016 28.6183 92.5877 28.8199 92.7208 29.082C92.8538 29.3421 92.9207 29.6526 92.9207 30.0134V32.9711H91.6323V30.2433C91.6343 29.959 91.5615 29.7372 91.4145 29.578C91.2675 29.4167 91.0649 29.336 90.8067 29.336C90.6333 29.336 90.4803 29.3733 90.3472 29.4479C90.2162 29.5225 90.1129 29.6314 90.0387 29.7745C89.9659 29.9157 89.9288 30.086 89.9268 30.2856ZM93.9357 32.9711V28.3259H95.224V32.9711H93.9357ZM94.5832 27.7271C94.3918 27.7271 94.227 27.6636 94.0899 27.5367C93.9549 27.4076 93.8873 27.2534 93.8873 27.0739C93.8873 26.8965 93.9549 26.7443 94.0899 26.6173C94.227 26.4883 94.3918 26.4237 94.5832 26.4237C94.7745 26.4237 94.938 26.4883 95.0731 26.6173C95.2101 26.7443 95.279 26.8965 95.279 27.0739C95.279 27.2534 95.2101 27.4076 95.0731 27.5367C94.938 27.6636 94.7745 27.7271 94.5832 27.7271ZM98.7271 28.3259V29.2937H95.9298V28.3259H98.7271ZM96.5647 27.213H97.8531V31.5436C97.8531 31.6626 97.871 31.7554 97.9074 31.8219C97.9438 31.8864 97.9941 31.9317 98.0584 31.958C98.1252 31.9842 98.202 31.9973 98.2888 31.9973C98.349 31.9973 98.4093 31.9923 98.4702 31.9821C98.5304 31.9701 98.5768 31.961 98.6092 31.9549L98.8118 32.9136C98.7469 32.9338 98.6562 32.957 98.5397 32.9832C98.4225 33.0114 98.2802 33.0285 98.1133 33.0346C97.8028 33.0467 97.5307 33.0054 97.2963 32.9105C97.0646 32.8158 96.8845 32.6686 96.7554 32.4691C96.6263 32.2695 96.5628 32.0174 96.5647 31.713V27.213ZM102.545 30.9933V28.3259H103.834V32.9711H102.596V32.1273H102.548C102.443 32.3995 102.269 32.6182 102.025 32.7836C101.783 32.9489 101.488 33.0316 101.139 33.0316C100.828 33.0316 100.555 32.961 100.319 32.8198C100.084 32.6788 99.8989 32.4781 99.7658 32.218C99.6348 31.958 99.5685 31.6465 99.5659 31.2836V28.3259H100.854V31.0537C100.856 31.3279 100.93 31.5446 101.075 31.7039C101.22 31.8632 101.415 31.9429 101.659 31.9429C101.814 31.9429 101.959 31.9076 102.094 31.837C102.229 31.7644 102.339 31.6576 102.421 31.5164C102.505 31.3753 102.547 31.2009 102.545 30.9933ZM104.864 32.9711V28.3259H106.112V29.1364H106.161C106.246 28.8481 106.388 28.6304 106.588 28.4832C106.787 28.334 107.017 28.2594 107.277 28.2594C107.342 28.2594 107.411 28.2634 107.486 28.2715C107.56 28.2796 107.626 28.2907 107.682 28.3048V29.4479C107.622 29.4298 107.538 29.4136 107.431 29.3995C107.325 29.3854 107.227 29.3783 107.138 29.3783C106.949 29.3783 106.779 29.4197 106.63 29.5023C106.483 29.583 106.366 29.6959 106.279 29.8411C106.195 29.9862 106.152 30.1536 106.152 30.343V32.9711H104.864ZM110.249 33.0618C109.771 33.0618 109.36 32.965 109.015 32.7714C108.673 32.5759 108.408 32.2997 108.223 31.9429C108.037 31.584 107.944 31.1596 107.944 30.6696C107.944 30.1918 108.037 29.7725 108.223 29.4116C108.408 29.0508 108.669 28.7695 109.006 28.5679C109.345 28.3662 109.742 28.2655 110.197 28.2655C110.504 28.2655 110.789 28.3149 111.053 28.4136C111.32 28.5104 111.551 28.6566 111.749 28.8521C111.949 29.0477 112.104 29.2937 112.215 29.5901C112.326 29.8844 112.381 30.2292 112.381 30.6243V30.9782H108.459V30.1798H111.169C111.169 29.9943 111.128 29.8299 111.048 29.6868C110.967 29.5437 110.855 29.4318 110.712 29.3511C110.571 29.2685 110.407 29.2271 110.219 29.2271C110.023 29.2271 109.85 29.2725 109.699 29.3632C109.549 29.452 109.433 29.5719 109.348 29.7231C109.263 29.8723 109.22 30.0386 109.218 30.2221V30.9811C109.218 31.211 109.26 31.4096 109.345 31.5769C109.431 31.7442 109.553 31.8733 109.711 31.964C109.868 32.0548 110.054 32.1001 110.27 32.1001C110.413 32.1001 110.544 32.0799 110.663 32.0396C110.782 31.9993 110.884 31.9388 110.969 31.8582C111.053 31.7775 111.118 31.6787 111.162 31.5618L112.354 31.6404C112.294 31.9267 112.17 32.1767 111.982 32.3904C111.796 32.6021 111.557 32.7674 111.262 32.8864C110.97 33.0033 110.632 33.0618 110.249 33.0618ZM116.905 33.0467C116.552 33.0467 116.232 32.956 115.946 32.7745C115.661 32.591 115.436 32.3219 115.268 31.967C115.103 31.6102 115.021 31.1727 115.021 30.6545C115.021 30.1223 115.106 29.6798 115.277 29.327C115.449 28.9721 115.677 28.707 115.961 28.5316C116.247 28.3542 116.561 28.2655 116.902 28.2655C117.162 28.2655 117.378 28.3098 117.552 28.3985C117.727 28.4852 117.868 28.5941 117.975 28.7251C118.084 28.8542 118.167 28.9812 118.223 29.1062H118.262V26.7776H119.548V32.9711H118.277V32.2271H118.223C118.163 32.3561 118.077 32.4842 117.966 32.6112C117.857 32.7362 117.715 32.84 117.54 32.9227C117.366 33.0054 117.154 33.0467 116.905 33.0467ZM117.313 32.0215C117.521 32.0215 117.696 31.965 117.839 31.8521C117.984 31.7372 118.095 31.5769 118.171 31.3713C118.25 31.1657 118.29 30.9247 118.29 30.6485C118.29 30.3723 118.251 30.1324 118.175 29.9287C118.098 29.7251 117.987 29.5679 117.842 29.457C117.697 29.3461 117.521 29.2907 117.313 29.2907C117.101 29.2907 116.923 29.3481 116.778 29.463C116.632 29.578 116.522 29.7372 116.448 29.9408C116.373 30.1445 116.336 30.3804 116.336 30.6485C116.336 30.9186 116.373 31.1576 116.448 31.3652C116.524 31.5708 116.634 31.7321 116.778 31.8491C116.923 31.964 117.101 32.0215 117.313 32.0215ZM122.724 33.0618C122.246 33.0618 121.835 32.965 121.49 32.7714C121.147 32.5759 120.883 32.2997 120.698 31.9429C120.512 31.584 120.419 31.1596 120.419 30.6696C120.419 30.1918 120.512 29.7725 120.698 29.4116C120.883 29.0508 121.144 28.7695 121.481 28.5679C121.819 28.3662 122.217 28.2655 122.672 28.2655C122.979 28.2655 123.264 28.3149 123.528 28.4136C123.794 28.5104 124.026 28.6566 124.224 28.8521C124.423 29.0477 124.579 29.2937 124.689 29.5901C124.801 29.8844 124.856 30.2292 124.856 30.6243V30.9782H120.934V30.1798H123.643C123.643 29.9943 123.603 29.8299 123.522 29.6868C123.441 29.5437 123.33 29.4318 123.187 29.3511C123.046 29.2685 122.881 29.2271 122.693 29.2271C122.498 29.2271 122.325 29.2725 122.174 29.3632C122.024 29.452 121.907 29.5719 121.823 29.7231C121.738 29.8723 121.694 30.0386 121.692 30.2221V30.9811C121.692 31.211 121.735 31.4096 121.819 31.5769C121.906 31.7442 122.028 31.8733 122.185 31.964C122.342 32.0548 122.529 32.1001 122.745 32.1001C122.888 32.1001 123.019 32.0799 123.138 32.0396C123.257 31.9993 123.359 31.9388 123.443 31.8582C123.528 31.7775 123.592 31.6787 123.637 31.5618L124.828 31.6404C124.768 31.9267 124.644 32.1767 124.456 32.3904C124.271 32.6021 124.031 32.7674 123.737 32.8864C123.445 33.0033 123.107 33.0618 122.724 33.0618ZM131.051 28.5588C131.027 28.3149 130.923 28.1253 130.74 27.9902C130.557 27.8552 130.308 27.7877 129.993 27.7877C129.779 27.7877 129.599 27.8179 129.452 27.8784C129.305 27.9368 129.191 28.0185 129.113 28.1233C129.037 28.2282 128.998 28.3471 128.998 28.4802C128.994 28.5911 129.017 28.6878 129.068 28.7705C129.12 28.8532 129.191 28.9248 129.282 28.9852C129.373 29.0437 129.478 29.0951 129.597 29.1395C129.716 29.1818 129.843 29.2181 129.978 29.2483L130.534 29.3814C130.804 29.4418 131.053 29.5225 131.278 29.6233C131.504 29.7241 131.699 29.8481 131.865 29.9953C132.03 30.1424 132.158 30.3158 132.249 30.5154C132.342 30.7151 132.389 30.9439 132.391 31.2019C132.389 31.581 132.293 31.9096 132.101 32.1878C131.911 32.464 131.637 32.6788 131.278 32.832C130.921 32.9832 130.491 33.0588 129.987 33.0588C129.487 33.0588 129.052 32.9821 128.68 32.8289C128.312 32.6757 128.024 32.4489 127.816 32.1485C127.61 31.8461 127.502 31.4721 127.492 31.0265H128.759C128.773 31.2342 128.833 31.4076 128.938 31.5467C129.045 31.6838 129.187 31.7876 129.364 31.8582C129.544 31.9267 129.746 31.961 129.972 31.961C130.194 31.961 130.387 31.9287 130.549 31.8642C130.715 31.7997 130.843 31.71 130.933 31.5951C131.024 31.4801 131.07 31.3481 131.07 31.1989C131.07 31.0598 131.028 30.9429 130.946 30.8481C130.865 30.7533 130.746 30.6727 130.589 30.6061C130.434 30.5396 130.243 30.4792 130.017 30.4247L129.343 30.2554C128.821 30.1283 128.408 29.9298 128.106 29.6596C127.804 29.3895 127.654 29.0255 127.656 28.5679C127.654 28.1929 127.753 27.8653 127.955 27.585C128.159 27.3048 128.437 27.0861 128.792 26.9288C129.147 26.7715 129.55 26.6929 130.002 26.6929C130.462 26.6929 130.863 26.7715 131.206 26.9288C131.55 27.0861 131.819 27.3048 132.01 27.585C132.202 27.8653 132.301 28.1899 132.307 28.5588H131.051ZM135.347 33.0618C134.877 33.0618 134.471 32.962 134.128 32.7624C133.787 32.5608 133.524 32.2805 133.339 31.9217C133.153 31.5608 133.061 31.1424 133.061 30.6667C133.061 30.1868 133.153 29.7674 133.339 29.4086C133.524 29.0477 133.787 28.7675 134.128 28.5679C134.471 28.3662 134.877 28.2655 135.347 28.2655C135.816 28.2655 136.221 28.3662 136.562 28.5679C136.905 28.7675 137.169 29.0477 137.355 29.4086C137.54 29.7674 137.633 30.1868 137.633 30.6667C137.633 31.1424 137.54 31.5608 137.355 31.9217C137.169 32.2805 136.905 32.5608 136.562 32.7624C136.221 32.962 135.816 33.0618 135.347 33.0618ZM135.353 32.0638C135.567 32.0638 135.745 32.0033 135.888 31.8824C136.031 31.7594 136.139 31.592 136.211 31.3804C136.286 31.1686 136.323 30.9277 136.323 30.6576C136.323 30.3874 136.286 30.1465 136.211 29.9348C136.139 29.7231 136.031 29.5558 135.888 29.4328C135.745 29.3098 135.567 29.2483 135.353 29.2483C135.137 29.2483 134.955 29.3098 134.808 29.4328C134.663 29.5558 134.553 29.7231 134.479 29.9348C134.406 30.1465 134.37 30.3874 134.37 30.6576C134.37 30.9277 134.406 31.1686 134.479 31.3804C134.553 31.592 134.663 31.7594 134.808 31.8824C134.955 32.0033 135.137 32.0638 135.353 32.0638ZM138.47 32.9711V28.3259H139.759V32.9711H138.47ZM139.118 27.7271C138.926 27.7271 138.762 27.6636 138.625 27.5367C138.49 27.4076 138.422 27.2534 138.422 27.0739C138.422 26.8965 138.49 26.7443 138.625 26.6173C138.762 26.4883 138.926 26.4237 139.118 26.4237C139.309 26.4237 139.473 26.4883 139.608 26.6173C139.745 26.7443 139.813 26.8965 139.813 27.0739C139.813 27.2534 139.745 27.4076 139.608 27.5367C139.473 27.6636 139.309 27.7271 139.118 27.7271ZM142.079 30.2856V32.9711H140.791V28.3259H142.018V29.1455H142.073C142.176 28.8753 142.348 28.6617 142.59 28.5043C142.832 28.3451 143.125 28.2655 143.47 28.2655C143.793 28.2655 144.074 28.336 144.314 28.4771C144.554 28.6183 144.74 28.8199 144.873 29.082C145.006 29.3421 145.073 29.6526 145.073 30.0134V32.9711H143.785V30.2433C143.787 29.959 143.714 29.7372 143.567 29.578C143.42 29.4167 143.217 29.336 142.959 29.336C142.786 29.336 142.633 29.3733 142.5 29.4479C142.369 29.5225 142.265 29.6314 142.191 29.7745C142.118 29.9157 142.081 30.086 142.079 30.2856ZM149.953 29.6505L148.774 29.7231C148.754 29.6223 148.711 29.5315 148.644 29.4509C148.578 29.3683 148.489 29.3027 148.381 29.2543C148.274 29.204 148.146 29.1787 147.997 29.1787C147.797 29.1787 147.629 29.2211 147.492 29.3058C147.355 29.3884 147.286 29.4993 147.286 29.6384C147.286 29.7493 147.33 29.843 147.419 29.9197C147.508 29.9963 147.66 30.0578 147.876 30.1042L148.717 30.2735C149.168 30.3662 149.504 30.5154 149.726 30.7211C149.948 30.9267 150.059 31.1969 150.059 31.5316C150.059 31.836 149.969 32.1032 149.79 32.333C149.612 32.5628 149.369 32.7422 149.058 32.8713C148.75 32.9983 148.394 33.0618 147.991 33.0618C147.376 33.0618 146.886 32.9338 146.521 32.6777C146.158 32.4196 145.945 32.0689 145.883 31.6253L147.15 31.5588C147.189 31.7463 147.281 31.8894 147.428 31.9882C147.575 32.085 147.764 32.1333 147.994 32.1333C148.219 32.1333 148.401 32.09 148.538 32.0033C148.677 31.9146 148.748 31.8007 148.75 31.6616C148.748 31.5446 148.698 31.4489 148.601 31.3743C148.505 31.2977 148.356 31.2392 148.154 31.1989L147.349 31.0386C146.896 30.9479 146.558 30.7907 146.336 30.5668C146.117 30.343 146.007 30.0578 146.007 29.711C146.007 29.4126 146.087 29.1556 146.248 28.9399C146.412 28.7242 146.641 28.5578 146.935 28.4409C147.232 28.3239 147.578 28.2655 147.976 28.2655C148.562 28.2655 149.024 28.3895 149.361 28.6374C149.699 28.8854 149.897 29.2231 149.953 29.6505Z" fill="#EA4335"/>
<path d="M57.7481 41.6199L57.8509 41.0392C57.8811 40.8679 57.9426 40.6875 58.0354 40.4979C58.1301 40.3084 58.2491 40.127 58.3922 39.9536C58.5374 39.7802 58.6987 39.632 58.8761 39.5091L59.2632 39.8296C59.116 40.0091 58.9819 40.1966 58.861 40.3921C58.74 40.5876 58.6614 40.8004 58.6251 41.0302L58.5223 41.6199H57.7481ZM59.2904 41.6199L59.3932 41.0392C59.4235 40.8679 59.485 40.6875 59.5777 40.4979C59.6725 40.3084 59.7914 40.127 59.9345 39.9536C60.0797 39.7802 60.241 39.632 60.4184 39.5091L60.8055 39.8296C60.6584 40.0091 60.5243 40.1966 60.4033 40.3921C60.2823 40.5876 60.2037 40.8004 60.1674 41.0302L60.0646 41.6199H59.2904ZM64.7853 41.3477C64.7874 41.0433 64.6885 40.8104 64.489 40.6491C64.2913 40.4879 64.0152 40.4072 63.6603 40.4072C63.4063 40.4072 63.1795 40.4475 62.9799 40.5282C62.7823 40.6068 62.621 40.7157 62.496 40.8548C62.3731 40.9919 62.2974 41.1481 62.2692 41.3235C62.243 41.4707 62.2561 41.5977 62.3085 41.7046C62.3629 41.8114 62.4406 41.9011 62.5414 41.9738C62.6442 42.0443 62.7571 42.1038 62.8801 42.1522C63.0031 42.1985 63.1221 42.2369 63.2369 42.267L63.8176 42.4244C64.0051 42.4727 64.1956 42.5382 64.3891 42.6209C64.5827 42.7035 64.7571 42.8125 64.9124 42.9475C65.0675 43.0826 65.1835 43.25 65.2601 43.4495C65.3367 43.6491 65.3518 43.888 65.3055 44.1663C65.245 44.517 65.1028 44.8285 64.8791 45.1007C64.6553 45.3729 64.3599 45.5876 63.993 45.7448C63.626 45.9021 63.2006 45.9807 62.7168 45.9807C62.2531 45.9807 61.8629 45.9072 61.5465 45.76C61.2319 45.6128 61.001 45.4041 60.8539 45.134C60.7067 44.8618 60.6543 44.5392 60.6966 44.1663H61.6372C61.615 44.39 61.6553 44.5765 61.7581 44.7257C61.8629 44.8729 62.0101 44.9828 62.1997 45.0553C62.3891 45.1259 62.6039 45.1612 62.8438 45.1612C63.1099 45.1612 63.3529 45.1198 63.5726 45.0372C63.7924 44.9525 63.9738 44.8356 64.1169 44.6864C64.2601 44.5352 64.3478 44.3588 64.3801 44.1572C64.4124 43.9737 64.3861 43.8235 64.3015 43.7066C64.2188 43.5897 64.0938 43.4929 63.9265 43.4163C63.7612 43.3397 63.5726 43.2721 63.3609 43.2136L62.6624 43.0141C62.1885 42.8789 61.8297 42.6804 61.5857 42.4183C61.3418 42.1562 61.2541 41.8094 61.3226 41.378C61.3831 41.0211 61.5323 40.7096 61.7702 40.4435C62.0081 40.1774 62.3045 39.9707 62.6593 39.8235C63.0141 39.6744 63.3993 39.5998 63.8146 39.5998C64.2339 39.5998 64.5908 39.6744 64.8851 39.8235C65.1794 39.9727 65.3972 40.1783 65.5383 40.4405C65.6794 40.7026 65.7288 41.005 65.6865 41.3477H64.7853ZM67.8707 39.6844L67.78 40.2651C67.7515 40.4364 67.6893 40.6169 67.5926 40.8064C67.4979 40.9939 67.3781 41.1744 67.2324 41.3477C67.0894 41.5211 66.9312 41.6703 66.7577 41.7953L66.3585 41.4747C66.5055 41.3014 66.6386 41.1169 66.7577 40.9213C66.8769 40.7257 66.9564 40.51 66.9967 40.2742L67.0967 39.6844H67.8707ZM70.6838 43.9515L71.1373 41.2328H72.045L71.2704 45.8779H70.3812L70.5176 45.0735H70.4693C70.3243 45.3215 70.1184 45.5281 69.8523 45.6935C69.5881 45.8568 69.2816 45.9384 68.9326 45.9384C68.6347 45.9384 68.3818 45.8729 68.1739 45.7418C67.968 45.6088 67.8224 45.4122 67.7356 45.1521C67.6489 44.892 67.6363 44.5704 67.6992 44.1874L68.1951 41.2328H69.0995L68.6248 44.0785C68.5738 44.3951 68.6215 44.6471 68.7665 44.8346C68.9121 45.0221 69.1233 45.1159 69.4014 45.1159C69.5709 45.1159 69.7463 45.0735 69.9277 44.9888C70.1091 44.9041 70.2694 44.7761 70.4091 44.6047C70.5501 44.4334 70.6414 44.2156 70.6838 43.9515ZM73.8465 43.1199L73.393 45.8779H72.4886L73.2626 41.2328H74.1305L74.0034 41.9888H74.061C74.2087 41.7408 74.4093 41.5433 74.6628 41.3961C74.9191 41.2469 75.2216 41.1723 75.5705 41.1723C75.885 41.1723 76.1492 41.2389 76.3624 41.3719C76.5782 41.503 76.7305 41.6985 76.8192 41.9586C76.9099 42.2187 76.9238 42.5403 76.8616 42.9233L76.3657 45.8779H75.4613L75.936 43.0322C75.9903 42.6955 75.9459 42.4324 75.8029 42.2429C75.6619 42.0513 75.4375 41.9556 75.1289 41.9556C74.9191 41.9556 74.7244 42.001 74.545 42.0917C74.3676 42.1824 74.2173 42.3154 74.0941 42.4909C73.9736 42.6642 73.8909 42.8739 73.8465 43.1199ZM77.5753 45.8779L78.3492 41.2328H79.2536L78.4797 45.8779H77.5753ZM78.9908 40.507C78.8332 40.507 78.7001 40.4546 78.5916 40.3498C78.4843 40.2429 78.4353 40.1159 78.4433 39.9687C78.4512 39.8195 78.5134 39.6925 78.6306 39.5877C78.7478 39.4808 78.8835 39.4274 79.0391 39.4274C79.196 39.4274 79.3284 39.4808 79.435 39.5877C79.5423 39.6925 79.5926 39.8195 79.5867 39.9687C79.578 40.1159 79.5158 40.2429 79.3986 40.3498C79.2841 40.4546 79.1477 40.507 78.9908 40.507ZM79.6959 45.8779L80.4699 41.2328H81.3444L81.22 41.9707H81.2683C81.3934 41.7207 81.5762 41.5241 81.8158 41.381C82.0555 41.2358 82.3117 41.1632 82.5838 41.1632C82.6428 41.1632 82.709 41.1653 82.7838 41.1693C82.8579 41.1713 82.9188 41.1764 82.9652 41.1844L82.8202 42.0494C82.7858 42.0392 82.7229 42.0282 82.6322 42.0161C82.5415 42.002 82.4481 41.9949 82.3515 41.9949C82.1396 41.9949 81.943 42.0403 81.7615 42.131C81.5801 42.2197 81.4279 42.3437 81.3047 42.5029C81.1816 42.6602 81.1021 42.8397 81.0657 43.0413L80.6003 45.8779H79.6959ZM84.9474 47.6198L86.018 41.2328H86.9012L86.7767 41.9858H86.8529C86.9211 41.8891 87.0137 41.7772 87.1309 41.6501C87.2501 41.5231 87.4064 41.4122 87.5997 41.3175C87.793 41.2207 88.034 41.1723 88.3227 41.1723C88.6974 41.1723 89.0152 41.2671 89.2747 41.4566C89.5349 41.6461 89.7203 41.9193 89.8315 42.2761C89.9421 42.633 89.9566 43.0625 89.8739 43.5644C89.7911 44.0664 89.6362 44.4969 89.4078 44.8557C89.18 45.2126 88.904 45.4878 88.5795 45.6813C88.2571 45.8729 87.9069 45.9687 87.5302 45.9687C87.2481 45.9687 87.025 45.9213 86.8615 45.8265C86.7006 45.7318 86.5808 45.6209 86.502 45.4938C86.4232 45.3669 86.3636 45.2539 86.3232 45.1551H86.2689L85.8578 47.6198H84.9474ZM86.5172 43.5554C86.4642 43.882 86.4642 44.1682 86.5172 44.4142C86.5695 44.6602 86.6741 44.8528 86.8317 44.9919C86.9906 45.1289 87.2004 45.1975 87.4606 45.1975C87.7308 45.1975 87.9678 45.1259 88.171 44.9828C88.375 44.8376 88.5431 44.641 88.6762 44.3931C88.8113 44.1451 88.9053 43.8659 88.9576 43.5554C89.0079 43.2489 89.0066 42.9737 88.9543 42.7298C88.9039 42.4858 88.8 42.2933 88.6431 42.1522C88.4855 42.011 88.271 41.9404 87.9989 41.9404C87.7347 41.9404 87.501 42.008 87.2971 42.1431C87.0958 42.2782 86.9283 42.4667 86.7953 42.7086C86.6622 42.9505 86.5695 43.2328 86.5172 43.5554ZM92.4771 45.9717C92.0355 45.9717 91.6661 45.8709 91.3702 45.6693C91.0735 45.4656 90.865 45.1813 90.7438 44.8164C90.6253 44.4495 90.6048 44.0231 90.6836 43.5372C90.7604 43.0614 90.9146 42.6461 91.1464 42.2913C91.3801 41.9364 91.6727 41.6613 92.023 41.4657C92.3758 41.2701 92.7684 41.1723 93.1995 41.1723C93.6411 41.1723 94.0092 41.2741 94.3031 41.4778C94.5997 41.6814 94.8083 41.9667 94.9294 42.3336C95.0506 42.7005 95.0718 43.1279 94.993 43.6159C94.9162 44.0876 94.7599 44.5009 94.5243 44.8557C94.2905 45.2086 93.9979 45.4828 93.647 45.6784C93.2961 45.8739 92.9062 45.9717 92.4771 45.9717ZM92.5281 45.2126C92.8188 45.2126 93.0717 45.136 93.2875 44.9828C93.5053 44.8295 93.6828 44.6259 93.8198 44.3719C93.9569 44.1179 94.0502 43.8397 94.1005 43.5372C94.1469 43.2449 94.1462 42.9778 94.0979 42.7358C94.0515 42.4919 93.9509 42.2963 93.7953 42.1491C93.6404 42.002 93.4246 41.9283 93.1485 41.9283C92.8578 41.9283 92.6029 42.006 92.3831 42.1612C92.1653 42.3144 91.9879 42.5191 91.8508 42.7751C91.7158 43.0312 91.6237 43.3104 91.5754 43.6128C91.5291 43.9031 91.5291 44.1703 91.5754 44.4142C91.6217 44.6562 91.723 44.8497 91.878 44.9948C92.0336 45.14 92.25 45.2126 92.5281 45.2126ZM98.8932 43.9515L99.3468 41.2328H100.254L99.4798 45.8779H98.5907L98.7271 45.0735H98.6787C98.5337 45.3215 98.3278 45.5281 98.0617 45.6935C97.7975 45.8568 97.491 45.9384 97.1421 45.9384C96.8441 45.9384 96.5912 45.8729 96.3833 45.7418C96.1774 45.6088 96.0318 45.4122 95.9451 45.1521C95.8583 44.892 95.8457 44.5704 95.9086 44.1874L96.4045 41.2328H97.3089L96.8342 44.0785C96.7832 44.3951 96.8309 44.6471 96.9759 44.8346C97.1209 45.0221 97.3327 45.1159 97.6108 45.1159C97.7803 45.1159 97.9558 45.0735 98.1372 44.9888C98.3186 44.9041 98.4788 44.7761 98.6178 44.6047C98.7595 44.4334 98.8509 44.2156 98.8932 43.9515ZM100.695 45.8779L101.469 41.2328H102.343L102.219 41.9707H102.268C102.392 41.7207 102.575 41.5241 102.815 41.381C103.055 41.2358 103.311 41.1632 103.583 41.1632C103.642 41.1632 103.708 41.1653 103.783 41.1693C103.857 41.1713 103.918 41.1764 103.964 41.1844L103.819 42.0494C103.785 42.0392 103.722 42.0282 103.632 42.0161C103.541 42.002 103.447 41.9949 103.35 41.9949C103.138 41.9949 102.942 42.0403 102.76 42.131C102.579 42.2197 102.427 42.3437 102.304 42.5029C102.181 42.6602 102.101 42.8397 102.065 43.0413L101.599 45.8779H100.695ZM109.497 43.9515L109.95 41.2328H110.857L110.084 45.8779H109.194L109.331 45.0735H109.282C109.137 45.3215 108.932 45.5281 108.665 45.6935C108.401 45.8568 108.095 45.9384 107.746 45.9384C107.447 45.9384 107.194 45.8729 106.987 45.7418C106.781 45.6088 106.635 45.4122 106.548 45.1521C106.461 44.892 106.449 44.5704 106.512 44.1874L107.008 41.2328H107.912L107.437 44.0785C107.387 44.3951 107.435 44.6471 107.58 44.8346C107.725 45.0221 107.936 45.1159 108.215 45.1159C108.384 45.1159 108.559 45.0735 108.741 44.9888C108.922 44.9041 109.082 44.7761 109.222 44.6047C109.363 44.4334 109.455 44.2156 109.497 43.9515ZM112.66 43.1199L112.205 45.8779H111.302L112.076 41.2328H112.944L112.817 41.9888H112.874C113.021 41.7408 113.222 41.5433 113.476 41.3961C113.732 41.2469 114.034 41.1723 114.383 41.1723C114.697 41.1723 114.962 41.2389 115.176 41.3719C115.391 41.503 115.544 41.6985 115.632 41.9586C115.723 42.2187 115.737 42.5403 115.675 42.9233L115.178 45.8779H114.274L114.749 43.0322C114.803 42.6955 114.759 42.4324 114.616 42.2429C114.475 42.0513 114.25 41.9556 113.941 41.9556C113.732 41.9556 113.538 42.001 113.358 42.0917C113.181 42.1824 113.03 42.3154 112.907 42.4909C112.786 42.6642 112.704 42.8739 112.66 43.1199ZM122.709 42.3669L121.866 42.512C121.847 42.4052 121.81 42.3044 121.754 42.2096C121.7 42.1148 121.615 42.0382 121.503 41.9798C121.39 41.9193 121.239 41.8891 121.052 41.8891C120.792 41.8891 120.564 41.9485 120.369 42.0675C120.175 42.1864 120.064 42.3376 120.036 42.5211C120.01 42.6703 120.045 42.7913 120.142 42.884C120.238 42.9747 120.409 43.0503 120.653 43.1108L121.367 43.2801C121.778 43.3789 122.072 43.5332 122.25 43.7429C122.429 43.9505 122.491 44.2207 122.437 44.5534C122.391 44.8295 122.27 45.0745 122.074 45.2882C121.881 45.5019 121.633 45.6693 121.33 45.7902C121.028 45.9112 120.691 45.9717 120.32 45.9717C119.792 45.9717 119.381 45.8598 119.086 45.636C118.792 45.4122 118.641 45.0957 118.633 44.6864L119.528 44.5534C119.544 44.7812 119.626 44.9535 119.773 45.0704C119.922 45.1854 120.128 45.2428 120.393 45.2428C120.695 45.2448 120.948 45.1813 121.152 45.0523C121.355 44.9233 121.472 44.767 121.5 44.5836C121.524 44.4404 121.492 44.3215 121.403 44.2267C121.316 44.132 121.163 44.0594 120.943 44.009L120.193 43.8366C119.774 43.7378 119.478 43.5785 119.304 43.3588C119.131 43.1391 119.072 42.8628 119.129 42.5302C119.173 42.258 119.288 42.0211 119.474 41.8195C119.661 41.6158 119.898 41.4576 120.184 41.3447C120.471 41.2298 120.787 41.1723 121.133 41.1723C121.64 41.1723 122.02 41.2812 122.274 41.4989C122.528 41.7147 122.673 42.0039 122.709 42.3669ZM125.185 45.9717C124.744 45.9717 124.375 45.8709 124.078 45.6693C123.782 45.4656 123.574 45.1813 123.453 44.8164C123.334 44.4495 123.314 44.0231 123.392 43.5372C123.469 43.0614 123.623 42.6461 123.855 42.2913C124.089 41.9364 124.381 41.6613 124.732 41.4657C125.085 41.2701 125.477 41.1723 125.908 41.1723C126.35 41.1723 126.717 41.2741 127.012 41.4778C127.309 41.6814 127.517 41.9667 127.638 42.3336C127.759 42.7005 127.78 43.1279 127.702 43.6159C127.625 44.0876 127.469 44.5009 127.232 44.8557C126.999 45.2086 126.707 45.4828 126.356 45.6784C126.005 45.8739 125.615 45.9717 125.185 45.9717ZM125.237 45.2126C125.527 45.2126 125.78 45.136 125.996 44.9828C126.214 44.8295 126.391 44.6259 126.528 44.3719C126.665 44.1179 126.759 43.8397 126.809 43.5372C126.856 43.2449 126.855 42.9778 126.806 42.7358C126.76 42.4919 126.659 42.2963 126.504 42.1491C126.349 42.002 126.133 41.9283 125.857 41.9283C125.567 41.9283 125.311 42.006 125.092 42.1612C124.874 42.3144 124.697 42.5191 124.56 42.7751C124.425 43.0312 124.333 43.3104 124.284 43.6128C124.238 43.9031 124.238 44.1703 124.284 44.4142C124.331 44.6562 124.431 44.8497 124.587 44.9948C124.742 45.14 124.959 45.2126 125.237 45.2126ZM128.339 45.8779L129.113 41.2328H130.017L129.243 45.8779H128.339ZM129.754 40.507C129.597 40.507 129.464 40.4546 129.355 40.3498C129.248 40.2429 129.199 40.1159 129.207 39.9687C129.215 39.8195 129.278 39.6925 129.394 39.5877C129.511 39.4808 129.647 39.4274 129.803 39.4274C129.96 39.4274 130.092 39.4808 130.199 39.5877C130.306 39.6925 130.356 39.8195 130.35 39.9687C130.342 40.1159 130.279 40.2429 130.163 40.3498C130.048 40.4546 129.911 40.507 129.754 40.507ZM131.821 43.1199L131.367 45.8779H130.463L131.237 41.2328H132.105L131.978 41.9888H132.035C132.182 41.7408 132.383 41.5433 132.637 41.3961C132.893 41.2469 133.196 41.1723 133.544 41.1723C133.858 41.1723 134.123 41.2389 134.336 41.3719C134.552 41.503 134.705 41.6985 134.793 41.9586C134.884 42.2187 134.898 42.5403 134.836 42.9233L134.34 45.8779H133.435L133.91 43.0322C133.964 42.6955 133.92 42.4324 133.777 42.2429C133.636 42.0513 133.411 41.9556 133.102 41.9556C132.893 41.9556 132.698 42.001 132.519 42.0917C132.342 42.1824 132.191 42.3154 132.068 42.4909C131.948 42.6642 131.865 42.8739 131.821 43.1199ZM139.616 42.3669L138.773 42.512C138.755 42.4052 138.717 42.3044 138.661 42.2096C138.607 42.1148 138.523 42.0382 138.41 41.9798C138.297 41.9193 138.147 41.8891 137.959 41.8891C137.699 41.8891 137.471 41.9485 137.276 42.0675C137.083 42.1864 136.971 42.3376 136.944 42.5211C136.917 42.6703 136.952 42.7913 137.049 42.884C137.146 42.9747 137.316 43.0503 137.56 43.1108L138.274 43.2801C138.686 43.3789 138.98 43.5332 139.157 43.7429C139.336 43.9505 139.399 44.2207 139.344 44.5534C139.298 44.8295 139.177 45.0745 138.982 45.2882C138.788 45.5019 138.54 45.6693 138.238 45.7902C137.935 45.9112 137.598 45.9717 137.228 45.9717C136.699 45.9717 136.288 45.8598 135.994 45.636C135.7 45.4122 135.548 45.0957 135.54 44.6864L136.435 44.5534C136.452 44.7812 136.533 44.9535 136.68 45.0704C136.829 45.1854 137.036 45.2428 137.301 45.2428C137.602 45.2448 137.855 45.1813 138.059 45.0523C138.263 44.9233 138.379 44.767 138.407 44.5836C138.431 44.4404 138.399 44.3215 138.31 44.2267C138.223 44.132 138.071 44.0594 137.851 44.009L137.101 43.8366C136.681 43.7378 136.385 43.5785 136.211 43.3588C136.038 43.1391 135.98 42.8628 136.036 42.5302C136.08 42.258 136.196 42.0211 136.381 41.8195C136.568 41.6158 136.805 41.4576 137.091 41.3447C137.378 41.2298 137.694 41.1723 138.041 41.1723C138.547 41.1723 138.927 41.2812 139.181 41.4989C139.435 41.7147 139.581 42.0039 139.616 42.3669ZM144.101 45.9687C143.725 45.9687 143.405 45.8729 143.143 45.6813C142.883 45.4878 142.698 45.2126 142.59 44.8557C142.483 44.4969 142.471 44.0664 142.553 43.5644C142.638 43.0625 142.794 42.633 143.022 42.2761C143.25 41.9193 143.526 41.6461 143.85 41.4566C144.175 41.2671 144.525 41.1723 144.9 41.1723C145.188 41.1723 145.412 41.2207 145.571 41.3175C145.733 41.4122 145.852 41.5231 145.928 41.6501C146.005 41.7772 146.062 41.8891 146.101 41.9858H146.152L146.536 39.6844H147.44L146.412 45.8779H145.529L145.653 45.1551H145.577C145.507 45.2539 145.409 45.3669 145.284 45.4938C145.161 45.6209 145.004 45.7318 144.812 45.8265C144.621 45.9213 144.384 45.9687 144.101 45.9687ZM144.407 45.1975C144.667 45.1975 144.9 45.1289 145.106 44.9919C145.314 44.8528 145.486 44.6602 145.623 44.4142C145.762 44.1682 145.858 43.882 145.913 43.5554C145.968 43.2328 145.966 42.9505 145.91 42.7086C145.854 42.4667 145.745 42.2782 145.584 42.1431C145.422 42.008 145.21 41.9404 144.945 41.9404C144.673 41.9404 144.436 42.011 144.234 42.1522C144.033 42.2933 143.868 42.4858 143.738 42.7298C143.611 42.9737 143.523 43.2489 143.472 43.5554C143.42 43.8659 143.418 44.1451 143.466 44.3931C143.515 44.641 143.617 44.8376 143.772 44.9828C143.927 45.1259 144.139 45.1975 144.407 45.1975ZM149.689 45.9717C149.234 45.9717 148.857 45.8739 148.558 45.6784C148.262 45.4807 148.055 45.2035 147.935 44.8467C147.816 44.4878 147.798 44.0675 147.878 43.5856C147.957 43.1098 148.115 42.6904 148.352 42.3276C148.591 41.9647 148.887 41.6814 149.242 41.4778C149.598 41.2741 149.993 41.1723 150.424 41.1723C150.686 41.1723 150.933 41.2157 151.166 41.3023C151.399 41.3891 151.598 41.5251 151.761 41.7106C151.924 41.8961 152.038 42.137 152.1 42.4334C152.164 42.7278 152.162 43.0856 152.094 43.507L152.042 43.8275H148.346L148.452 43.1501H151.259C151.301 42.9122 151.29 42.7016 151.226 42.5181C151.161 42.3326 151.05 42.1864 150.893 42.0795C150.738 41.9727 150.543 41.9193 150.306 41.9193C150.065 41.9193 149.839 41.9828 149.629 42.1098C149.419 42.2369 149.244 42.3991 149.103 42.5967C148.964 42.7923 148.876 42.9939 148.84 43.2016L148.734 43.8215C148.681 44.1602 148.691 44.4323 148.761 44.638C148.834 44.8437 148.961 44.9928 149.142 45.0856C149.324 45.1784 149.55 45.2247 149.822 45.2247C149.998 45.2247 150.16 45.2005 150.31 45.1521C150.46 45.1017 150.595 45.0281 150.711 44.9313C150.829 44.8326 150.927 44.7096 151.005 44.5624L151.834 44.7166C151.722 44.9687 151.563 45.1894 151.356 45.3789C151.148 45.5664 150.903 45.7126 150.621 45.8175C150.341 45.9203 150.03 45.9717 149.689 45.9717ZM157.814 47.6198L158.219 45.1551H158.168C158.097 45.2539 158 45.3669 157.878 45.4938C157.755 45.6209 157.596 45.7318 157.402 45.8265C157.211 45.9213 156.974 45.9687 156.692 45.9687C156.315 45.9687 155.996 45.8729 155.737 45.6813C155.476 45.4878 155.292 45.2126 155.183 44.8557C155.076 44.4969 155.064 44.0664 155.147 43.5644C155.229 43.0625 155.384 42.633 155.612 42.2761C155.84 41.9193 156.117 41.6461 156.441 41.4566C156.765 41.2671 157.116 41.1723 157.49 41.1723C157.778 41.1723 158.002 41.2207 158.162 41.3175C158.323 41.4122 158.442 41.5231 158.519 41.6501C158.595 41.7772 158.652 41.8891 158.691 41.9858H158.763L158.893 41.2328H159.776L158.718 47.6198H157.814ZM157.016 45.1975C157.278 45.1975 157.51 45.1289 157.714 44.9919C157.918 44.8528 158.086 44.6602 158.219 44.4142C158.354 44.1682 158.449 43.882 158.503 43.5554C158.558 43.2328 158.558 42.9505 158.503 42.7086C158.451 42.4667 158.346 42.2782 158.189 42.1431C158.032 42.008 157.822 41.9404 157.56 41.9404C157.286 41.9404 157.045 42.011 156.84 42.1522C156.634 42.2933 156.466 42.4858 156.335 42.7298C156.204 42.9737 156.113 43.2489 156.06 43.5554C156.009 43.8659 156.011 44.1451 156.063 44.3931C156.115 44.641 156.22 44.8376 156.377 44.9828C156.537 45.1259 156.749 45.1975 157.016 45.1975ZM163.487 43.9515L163.941 41.2328H164.848L164.074 45.8779H163.185L163.321 45.0735H163.272C163.127 45.3215 162.922 45.5281 162.656 45.6935C162.392 45.8568 162.085 45.9384 161.736 45.9384C161.438 45.9384 161.185 45.8729 160.977 45.7418C160.772 45.6088 160.625 45.4122 160.538 45.1521C160.452 44.892 160.44 44.5704 160.502 44.1874L160.999 41.2328H161.902L161.428 44.0785C161.377 44.3951 161.425 44.6471 161.57 44.8346C161.715 45.0221 161.927 45.1159 162.205 45.1159C162.374 45.1159 162.55 45.0735 162.731 44.9888C162.913 44.9041 163.073 44.7761 163.212 44.6047C163.353 44.4334 163.445 44.2156 163.487 43.9515ZM166.629 45.9807C166.334 45.9807 166.077 45.9263 165.858 45.8175C165.638 45.7066 165.476 45.5463 165.37 45.3366C165.266 45.1269 165.239 44.8698 165.289 44.5654C165.333 44.3034 165.42 44.0876 165.549 43.9182C165.68 43.7489 165.839 43.6148 166.027 43.516C166.214 43.4153 166.418 43.3397 166.637 43.2892C166.857 43.2388 167.079 43.2016 167.303 43.1773C167.585 43.1451 167.814 43.1179 167.989 43.0957C168.167 43.0735 168.3 43.0392 168.389 42.9929C168.477 42.9445 168.531 42.8659 168.549 42.757V42.7358C168.591 42.4737 168.553 42.2701 168.434 42.125C168.317 41.9778 168.113 41.9042 167.823 41.9042C167.521 41.9042 167.266 41.9707 167.061 42.1038C166.857 42.2369 166.707 42.386 166.61 42.5513L165.8 42.3578C165.945 42.0755 166.13 41.8477 166.353 41.6744C166.579 41.4989 166.826 41.3719 167.094 41.2933C167.362 41.2126 167.637 41.1723 167.917 41.1723C168.103 41.1723 168.295 41.1945 168.495 41.2389C168.694 41.2812 168.875 41.3598 169.039 41.4747C169.204 41.5897 169.327 41.7539 169.408 41.9677C169.488 42.1794 169.5 42.4545 169.444 42.7933L168.933 45.8779H168.05L168.159 45.2428H168.122C168.046 45.3598 167.939 45.4747 167.802 45.5876C167.667 45.7005 167.501 45.7943 167.306 45.8688C167.11 45.9434 166.884 45.9807 166.629 45.9807ZM166.937 45.255C167.189 45.255 167.412 45.2056 167.605 45.1068C167.801 45.0079 167.959 44.8789 168.08 44.7197C168.201 44.5584 168.277 44.386 168.307 44.2025L168.407 43.6038C168.369 43.636 168.301 43.6653 168.204 43.6914C168.109 43.7176 168.003 43.7409 167.883 43.761C167.764 43.7812 167.648 43.7983 167.533 43.8124C167.42 43.8265 167.326 43.8397 167.251 43.8517C167.074 43.8739 166.908 43.9112 166.753 43.9636C166.599 44.016 166.471 44.0916 166.369 44.1904C166.265 44.2872 166.201 44.4163 166.175 44.5775C166.139 44.8013 166.192 44.9707 166.335 45.0856C166.481 45.1985 166.681 45.255 166.937 45.255ZM172.07 39.6844L171.042 45.8779H170.137L171.165 39.6844H172.07ZM172.258 45.8779L173.032 41.2328H173.936L173.162 45.8779H172.258ZM173.673 40.507C173.516 40.507 173.383 40.4546 173.274 40.3498C173.167 40.2429 173.118 40.1159 173.126 39.9687C173.134 39.8195 173.197 39.6925 173.314 39.5877C173.43 39.4808 173.567 39.4274 173.722 39.4274C173.879 39.4274 174.011 39.4808 174.118 39.5877C174.225 39.6925 174.275 39.8195 174.269 39.9687C174.261 40.1159 174.198 40.2429 174.082 40.3498C173.967 40.4546 173.831 40.507 173.673 40.507ZM177.321 41.2328L177.203 41.9586H174.666L174.784 41.2328H177.321ZM175.646 40.1199H176.55L175.818 44.514C175.79 44.6894 175.795 44.8215 175.834 44.9102C175.871 44.9969 175.93 45.0563 176.009 45.0886C176.089 45.1188 176.179 45.134 176.278 45.134C176.351 45.134 176.414 45.1289 176.469 45.1188C176.523 45.1088 176.567 45.1007 176.598 45.0947L176.647 45.8416C176.586 45.8618 176.505 45.8819 176.402 45.9021C176.301 45.9243 176.178 45.9364 176.033 45.9384C175.795 45.9425 175.58 45.9001 175.389 45.8114C175.197 45.7207 175.054 45.5835 174.96 45.4001C174.864 45.2146 174.841 44.9818 174.89 44.7015L175.646 40.1199ZM179.488 45.9717C179.031 45.9717 178.655 45.8739 178.356 45.6784C178.06 45.4807 177.852 45.2035 177.733 44.8467C177.615 44.4878 177.595 44.0675 177.676 43.5856C177.754 43.1098 177.913 42.6904 178.151 42.3276C178.389 41.9647 178.685 41.6814 179.04 41.4778C179.397 41.2741 179.791 41.1723 180.222 41.1723C180.484 41.1723 180.731 41.2157 180.963 41.3023C181.197 41.3891 181.396 41.5251 181.559 41.7106C181.722 41.8961 181.835 42.137 181.897 42.4334C181.962 42.7278 181.96 43.0856 181.892 43.507L181.84 43.8275H178.145L178.25 43.1501H181.057C181.099 42.9122 181.088 42.7016 181.024 42.5181C180.959 42.3326 180.848 42.1864 180.691 42.0795C180.536 41.9727 180.34 41.9193 180.104 41.9193C179.862 41.9193 179.637 41.9828 179.427 42.1098C179.217 42.2369 179.042 42.3991 178.9 42.5967C178.761 42.7923 178.674 42.9939 178.637 43.2016L178.532 43.8215C178.479 44.1602 178.489 44.4323 178.559 44.638C178.632 44.8437 178.759 44.9928 178.94 45.0856C179.121 45.1784 179.348 45.2247 179.621 45.2247C179.796 45.2247 179.958 45.2005 180.107 45.1521C180.258 45.1017 180.393 45.0281 180.509 44.9313C180.626 44.8326 180.724 44.7096 180.803 44.5624L181.631 44.7166C181.521 44.9687 181.361 45.1894 181.153 45.3789C180.946 45.5664 180.701 45.7126 180.418 45.8175C180.138 45.9203 179.828 45.9717 179.488 45.9717ZM184.317 39.6844L184.227 40.2651C184.199 40.4364 184.136 40.6169 184.039 40.8064C183.945 40.9939 183.825 41.1744 183.68 41.3477C183.536 41.5211 183.378 41.6703 183.204 41.7953L182.806 41.4747C182.953 41.3014 183.086 41.1169 183.204 40.9213C183.324 40.7257 183.403 40.51 183.443 40.2742L183.543 39.6844H184.317ZM185.857 39.6844L185.766 40.2651C185.738 40.4364 185.675 40.6169 185.579 40.8064C185.484 40.9939 185.364 41.1744 185.219 41.3477C185.075 41.5211 184.917 41.6703 184.741 41.7953L184.342 41.4747C184.489 41.3014 184.622 41.1169 184.741 40.9213C184.862 40.7257 184.942 40.51 184.983 40.2742L185.083 39.6844H185.857Z" fill="#176B4D"/>
</g>
<defs>
<clipPath id="clip0_1_17">
<rect width="185.909" height="48" fill="white"/>
</clipPath>
</defs>
</svg>
